HIERARCHY
ROOT Hips
{
 OFFSET 0.000000 0.000000 0.000000
 CHANNELS 6 Xposition Yposition Zposition Yrotation Xrotation Zrotation
 JOINT Chest
 {
  OFFSET 0.000000 9.588913 -0.003946
  CHANNELS 3 Yrotation Xrotation Zrotation
  JOINT Chest2
  {
   OFFSET 0.000000 9.541882 0.008053
   CHANNELS 3 Yrotation Xrotation Zrotation
   JOINT Chest3
   {
    OFFSET 0.000000 9.501360 0.000000
    CHANNELS 3 Yrotation Xrotation Zrotation
    JOINT Chest4
    {
     OFFSET 0.000000 9.491660 0.000000
     CHANNELS 3 Yrotation Xrotation Zrotation
     JOINT Neck
     {
      OFFSET 0.000000 14.331917 0.000000
      CHANNELS 3 Yrotation Xrotation Zrotation
      JOINT Head
      {
       OFFSET 0.000000 8.884799 0.017034
       CHANNELS 3 Yrotation Xrotation Zrotation
       End Site
       {
        OFFSET 0.000000 16.896195 0.008993
       }
      }
     }
     JOINT RightCollar
     {
      OFFSET -2.923010 9.499495 0.000000
      CHANNELS 3 Yrotation Xrotation Zrotation
      JOINT RightShoulder
      {
       OFFSET -13.795216 0.000000 0.000000
       CHANNELS 3 Yrotation Xrotation Zrotation
       JOINT RightElbow
       {
        OFFSET -30.272209 0.000000 0.000000
        CHANNELS 3 Yrotation Xrotation Zrotation
        JOINT RightWrist
        {
         OFFSET -24.478199 0.000000 0.000000
         CHANNELS 3 Yrotation Xrotation Zrotation
         End Site
         {
          OFFSET -18.090752 0.000000 0.000000
         }
        }
       }
      }
     }
     JOINT LeftCollar
     {
      OFFSET 2.923010 9.499495 0.000000
      CHANNELS 3 Yrotation Xrotation Zrotation
      JOINT LeftShoulder
      {
       OFFSET 13.795216 0.000000 0.000000
       CHANNELS 3 Yrotation Xrotation Zrotation
       JOINT LeftElbow
       {
        OFFSET 30.272209 0.000000 0.000000
        CHANNELS 3 Yrotation Xrotation Zrotation
        JOINT LeftWrist
        {
         OFFSET 24.478199 0.000000 0.000000
         CHANNELS 3 Yrotation Xrotation Zrotation
         End Site
         {
          OFFSET 18.090752 0.000000 0.000000
         }
        }
       }
      }
     }
    }
   }
  }
 }
 JOINT RightHip
 {
  OFFSET -7.826875 0.019532 0.001973
  CHANNELS 3 Yrotation Xrotation Zrotation
  JOINT RightKnee
  {
   OFFSET 0.000000 -40.546152 -0.001885
   CHANNELS 3 Yrotation Xrotation Zrotation
   JOINT RightAnkle
   {
    OFFSET 0.000000 -39.417092 -0.003189
    CHANNELS 3 Yrotation Xrotation Zrotation
    JOINT RightToe
    {
     OFFSET 0.000000 -7.579396 17.243563
     CHANNELS 3 Yrotation Xrotation Zrotation
     End Site
     {
      OFFSET 0.000000 -1.500329 6.694466
     }
    }
   }
  }
 }
 JOINT LeftHip
 {
  OFFSET 7.826875 0.019532 0.001973
  CHANNELS 3 Yrotation Xrotation Zrotation
  JOINT LeftKnee
  {
   OFFSET 0.000000 -40.546152 -0.001885
   CHANNELS 3 Yrotation Xrotation Zrotation
   JOINT LeftAnkle
   {
    OFFSET 0.000000 -39.417092 -0.003189
    CHANNELS 3 Yrotation Xrotation Zrotation
    JOINT LeftToe
    {
     OFFSET 0.000000 -7.579396 17.243563
     CHANNELS 3 Yrotation Xrotation Zrotation
     End Site
     {
      OFFSET 0.000000 -1.500329 6.694466
     }
    }
   }
  }
 }
}
MOTION
Frames: 13
Frame Time: 0.008333
-81.047379 88.192926 73.995532 -58.558812 -7.804736 -1.126011 6.880785 2.090916 1.757190 3.972591 1.244779 0.833598 4.968825 1.546699 1.055389 3.972591 1.244779 0.833598 -2.438634 15.349083 -2.088306 -2.084420 -9.592778 -1.637445 -6.966219 0.950975 -0.028261 1.036939 2.557830 86.482567 0.448124 11.723061 0.797525 -5.004488 1.187898 -4.237517 -3.903343 1.659986 -2.829043 6.202406 -2.617919 -88.725172 0.465705 3.944044 -3.131098 -8.490339 -0.555989 6.146586 3.761658 11.272680 -4.992972 -7.820171 5.624549 0.070992 2.664213 -8.006793 2.805419 0.014115 0.376658 0.001448 20.605687 18.120814 9.764539 0.534940 -1.357778 1.743815 4.527169 -8.108692 -6.613169 -0.080388 -0.315460 -0.036205
-81.049178 88.191707 73.976817 -58.608008 -7.795357 -1.128973 6.880302 2.082802 1.757466 3.971946 1.240581 0.834719 4.968010 1.541442 1.056743 3.971946 1.240581 0.834719 -2.427634 15.347421 -2.091288 -2.072119 -9.594701 -1.642999 -6.971209 0.981132 -0.034771 0.968863 2.566153 86.497648 0.480772 11.627963 0.799656 -4.985083 1.165009 -4.225474 -3.927776 1.643660 -2.830749 6.163454 -2.660620 -88.634107 0.300400 4.192344 -3.290161 -8.268508 -0.427840 6.020953 3.756184 11.249938 -4.980494 -7.801635 5.623696 0.065218 2.701894 -8.015291 2.795321 0.014847 0.378788 0.000219 20.623582 18.129176 9.768200 0.554899 -1.399356 1.742960 4.539187 -8.092932 -6.616665 -0.080948 -0.316192 -0.036901
-81.050311 88.190768 73.956978 -58.657164 -7.783237 -1.133301 6.878508 2.073404 1.757491 3.970409 1.235724 0.835940 4.966079 1.535363 1.058211 3.970409 1.235724 0.835940 -2.414170 15.345461 -2.093038 -2.057482 -9.597004 -1.647794 -6.977751 1.008988 -0.041600 0.899498 2.577977 86.511600 0.510190 11.527215 0.802908 -4.965488 1.140989 -4.216207 -3.947590 1.620325 -2.828545 6.131487 -2.686671 -88.546112 0.153129 4.409788 -3.441113 -8.051492 -0.321025 5.950416 3.759454 11.229247 -4.965213 -7.792046 5.613015 0.061113 2.740223 -8.019025 2.785931 0.015123 0.379854 -0.001975 20.648327 18.129772 9.773578 0.569659 -1.435596 1.743703 4.550632 -8.079215 -6.621171 -0.080356 -0.316757 -0.037591
-81.050645 88.189958 73.936391 -58.704076 -7.769107 -1.138316 6.873279 2.063447 1.757084 3.966887 1.230570 0.837262 4.961667 1.528915 1.059796 3.966887 1.230570 0.837262 -2.396752 15.342844 -2.093324 -2.038984 -9.600098 -1.651911 -6.981889 1.033786 -0.049525 0.829269 2.591920 86.526359 0.533450 11.420483 0.805076 -4.944289 1.119841 -4.210205 -3.961044 1.588216 -2.824936 6.102014 -2.694180 -88.463475 0.025120 4.591938 -3.576329 -7.850708 -0.241520 5.923515 3.768592 11.210332 -4.947319 -7.789676 5.595072 0.058534 2.772086 -8.019700 2.778047 0.014850 0.380382 -0.005607 20.677474 18.122373 9.781879 0.579297 -1.463843 1.744001 4.555691 -8.069511 -6.625356 -0.079215 -0.317203 -0.038567
-81.049957 88.189106 73.915253 -58.747273 -7.752124 -1.144071 6.865260 2.052890 1.756671 3.961479 1.224946 0.838896 4.954897 1.521882 1.061758 3.961479 1.224946 0.838896 -2.377167 15.339785 -2.092804 -2.018374 -9.603707 -1.655652 -6.982206 1.056000 -0.059085 0.754154 2.607487 86.541512 0.549861 11.309674 0.805721 -4.919081 1.099788 -4.203689 -3.969271 1.549644 -2.822490 6.068920 -2.688501 -88.386708 -0.078022 4.733978 -3.689812 -7.677311 -0.190723 5.926089 3.781973 11.190814 -4.928134 -7.791989 5.573193 0.056640 2.800916 -8.019046 2.771963 0.014519 0.379931 -0.009793 20.707806 18.105375 9.791580 0.583906 -1.481997 1.742318 4.560255 -8.065510 -6.627326 -0.077216 -0.316223 -0.040143
-81.048198 88.188090 73.893591 -58.785119 -7.731199 -1.152157 6.855517 2.040856 1.756760 3.954618 1.218366 0.840992 4.946309 1.513652 1.064284 3.954618 1.218367 0.840992 -2.357089 15.337738 -2.092110 -1.997291 -9.606259 -1.659323 -6.981899 1.077806 -0.070570 0.676231 2.624116 86.558471 0.560976 11.195652 0.803740 -4.891920 1.077767 -4.193635 -3.977864 1.507850 -2.822194 6.032341 -2.675713 -88.317458 -0.149880 4.829432 -3.777818 -7.543391 -0.159154 5.949511 3.796656 11.169482 -4.908327 -7.797252 5.547672 0.057456 2.830487 -8.016618 2.765495 0.014181 0.377971 -0.013375 20.734923 18.077640 9.801833 0.584403 -1.489723 1.739692 4.567098 -8.068633 -6.626406 -0.074799 -0.312675 -0.042903
-81.045490 88.186880 73.871948 -58.817624 -7.707317 -1.161773 6.843178 2.027473 1.756901 3.946004 1.210673 0.843282 4.935527 1.504033 1.067034 3.946004 1.210673 0.843282 -2.335899 15.338557 -2.091255 -1.975087 -9.605814 -1.663081 -6.982371 1.101435 -0.083612 0.600794 2.640826 86.577901 0.568166 11.080311 0.797603 -4.865260 1.052530 -4.180893 -3.989873 1.466482 -2.824981 5.999012 -2.659802 -88.259028 -0.189575 4.874688 -3.836958 -7.452703 -0.139693 5.989891 3.809023 11.147983 -4.889180 -7.803739 5.517264 0.062111 2.858164 -8.011974 2.758047 0.013251 0.375291 -0.016583 20.756061 18.042058 9.811337 0.583727 -1.488788 1.737815 4.571498 -8.077914 -6.623781 -0.072599 -0.307632 -0.046394
-81.041798 88.185466 73.850671 -58.849306 -7.679962 -1.171781 6.829031 2.012042 1.756565 3.936250 1.201352 0.845565 4.923315 1.492383 1.069756 3.936250 1.201352 0.845565 -2.313021 15.344272 -2.089874 -1.951243 -9.600248 -1.666678 -6.983092 1.128219 -0.098628 0.528138 2.657362 86.600521 0.571612 10.964273 0.787151 -4.842249 1.025922 -4.166847 -4.002622 1.431721 -2.829790 5.972575 -2.644380 -88.215672 -0.198196 4.873594 -3.863034 -7.403757 -0.130569 6.039358 3.821657 11.125950 -4.871474 -7.812766 5.480499 0.068372 2.889298 -8.004550 2.752252 0.011693 0.372523 -0.020407 20.775265 18.002110 9.818531 0.582583 -1.485914 1.736764 4.576755 -8.088879 -6.620312 -0.070098 -0.301879 -0.049471
-81.037045 88.183864 73.830062 -58.882056 -7.648381 -1.181099 6.814641 1.994364 1.755335 3.926327 1.190534 0.847156 4.910887 1.478868 1.071595 3.926327 1.190534 0.847156 -2.289578 15.355183 -2.086814 -1.927204 -9.589242 -1.668653 -6.982765 1.157120 -0.113259 0.453684 2.673255 86.626040 0.570914 10.847466 0.774020 -4.825468 0.999959 -4.152757 -4.013063 1.404662 -2.832983 5.951553 -2.629424 -88.187425 -0.181163 4.834692 -3.856813 -7.389051 -0.132194 6.093909 3.836251 11.105171 -4.856061 -7.824083 5.432046 0.075369 2.925343 -7.992113 2.749959 0.010165 0.370390 -0.025323 20.794723 17.960771 9.822176 0.575658 -1.487596 1.735313 4.591861 -8.097262 -6.614928 -0.066932 -0.295648 -0.051973
-81.031574 88.182174 73.810646 -58.915296 -7.615166 -1.188757 6.800513 1.975841 1.753311 3.916422 1.179086 0.847629 4.898475 1.464580 1.072032 3.916422 1.179087 0.847629 -2.266077 15.370995 -2.081360 -1.903662 -9.573107 -1.668140 -6.980714 1.187062 -0.124365 0.374788 2.688191 86.650391 0.566917 10.731588 0.761359 -4.815357 0.977037 -4.136434 -4.020044 1.383456 -2.835426 5.937456 -2.615847 -88.168926 -0.142705 4.767289 -3.825430 -7.401466 -0.146076 6.158850 3.850065 11.088608 -4.843721 -7.834352 5.371834 0.084047 2.960266 -7.974744 2.749793 0.009364 0.369227 -0.030423 20.813057 17.921137 9.822623 0.565665 -1.493396 1.734607 4.609601 -8.102678 -6.609754 -0.063511 -0.290138 -0.053150
-81.025389 88.180422 73.792496 -58.947995 -7.580556 -1.194784 6.785965 1.957021 1.750289 3.906015 1.167280 0.847428 4.885432 1.449852 1.071621 3.906015 1.167280 0.847428 -2.241251 15.391135 -2.074660 -1.879022 -9.552449 -1.666627 -6.977612 1.217379 -0.132599 0.293429 2.701381 86.670628 0.561131 10.619766 0.751219 -4.810236 0.958424 -4.116372 -4.024755 1.368220 -2.840161 5.940426 -2.607523 -88.158602 -0.082685 4.683816 -3.772953 -7.436982 -0.172584 6.239248 3.859201 11.072414 -4.835080 -7.843007 5.307884 0.094628 2.993169 -7.955840 2.750184 0.009191 0.368600 -0.034938 20.829043 17.881878 9.820397 0.563929 -1.500323 1.735166 4.614956 -8.106660 -6.607309 -0.060621 -0.285547 -0.052054
-81.018371 88.178600 73.775551 -58.982656 -7.544703 -1.198873 6.772091 1.938417 1.746402 3.895837 1.155494 0.847142 4.872675 1.435150 1.071105 3.895837 1.155495 0.847142 -2.215577 15.413328 -2.069038 -1.853268 -9.529617 -1.666451 -6.975532 1.247306 -0.140438 0.213013 2.712021 86.688475 0.553644 10.514464 0.742192 -4.805743 0.941575 -4.093958 -4.030497 1.359043 -2.848269 5.966147 -2.604860 -88.159357 -0.004104 4.590450 -3.698708 -7.489328 -0.210387 6.336873 3.866540 11.054429 -4.831141 -7.850722 5.244490 0.108991 3.023945 -7.937439 2.750321 0.009309 0.368490 -0.039214 20.844496 17.843830 9.814174 0.570430 -1.509503 1.736714 4.615708 -8.108024 -6.608523 -0.058060 -0.281365 -0.048100
-81.010587 88.176691 73.759597 -59.024614 -7.509178 -1.201611 6.762061 1.920090 1.742235 3.887880 1.144043 0.847012 4.862698 1.420859 1.070796 3.887880 1.144043 0.847012 -2.191530 15.436077 -2.064624 -1.828975 -9.506137 -1.667197 -6.977819 1.277562 -0.148667 0.137686 2.720086 86.705525 0.542626 10.412510 0.733140 -4.800571 0.928987 -4.069503 -4.038623 1.356431 -2.857293 6.009299 -2.605928 -88.173450 0.089822 4.487761 -3.603751 -7.552785 -0.259854 6.451799 3.881194 11.037106 -4.830211 -7.858436 5.179033 0.127221 3.053528 -7.918384 2.750698 0.009252 0.368845 -0.043518 20.862778 17.810457 9.803670 0.576854 -1.524173 1.740699 4.628018 -8.104915 -6.614280 -0.055120 -0.277286 -0.041546
